<?xml version="1.0" encoding="UTF-8" standalone="no"?>
<!DOCTYPE svg PUBLIC "-//W3C//DTD SVG 1.1//EN" "http://www.w3.org/Graphics/SVG/1.1/DTD/svg11.dtd">
<svg width="100%" height="100%" viewBox="0 0 270 304" version="1.1" xmlns="http://www.w3.org/2000/svg" xmlns:xlink="http://www.w3.org/1999/xlink" xml:space="preserve" xmlns:serif="http://www.serif.com/" style="fill-rule:evenodd;clip-rule:evenodd;stroke-linejoin:round;stroke-miterlimit:2;">
    <g id="Artboard1" transform="matrix(1,0,0,1,-145,-48.272)">
        <rect x="145" y="48.272" width="270" height="303.456" style="fill:none;"/>
        <clipPath id="_clip1">
            <rect x="145" y="48.272" width="270" height="303.456"/>
        </clipPath>
        <g clip-path="url(#_clip1)">
            <g transform="matrix(1,0,0,1,1,0.272016)">
                <g transform="matrix(0.831388,0,0,0.831388,145,48.2714)">
                    <path d="M324.741,107.31C324.738,101.173 323.426,95.75 320.771,91.096C318.164,86.519 314.26,82.683 309.021,79.65C265.787,54.721 222.512,29.868 179.291,4.913C167.639,-1.813 156.342,-1.568 144.776,5.255C127.568,15.404 41.41,64.765 15.737,79.636C5.163,85.756 0.018,95.123 0.016,107.299C-0,157.433 0.016,207.565 -0,257.701C0.002,263.703 1.259,269.021 3.796,273.605C6.405,278.32 10.364,282.262 15.722,285.363C41.398,300.234 127.567,349.592 144.771,359.743C156.342,366.57 167.639,366.814 179.295,360.085C222.516,335.129 265.795,310.277 309.036,285.349C314.394,282.248 318.353,278.304 320.962,273.593C323.496,269.008 324.755,263.69 324.758,257.688C324.758,257.688 324.758,157.445 324.741,107.31Z" style="fill:rgb(155,73,147);fill-rule:nonzero;"/>
                    <path d="M162.875,182.011L3.796,273.605C6.405,278.32 10.364,282.262 15.722,285.363C41.398,300.234 127.567,349.592 144.771,359.743C156.342,366.57 167.639,366.814 179.295,360.085C222.516,335.129 265.795,310.277 309.036,285.349C314.394,282.248 318.353,278.304 320.962,273.593L162.875,182.011Z" style="fill:rgb(104,40,118);fill-rule:nonzero;"/>
                    <path d="M115.758,209.142C125.015,225.302 142.417,236.202 162.379,236.202C182.464,236.202 199.965,225.164 209.175,208.831L162.875,182.011L115.758,209.142Z" style="fill:rgb(104,40,118);fill-rule:nonzero;"/>
                    <path d="M324.741,107.31C324.738,101.173 323.426,95.75 320.771,91.096L162.875,182.011L320.962,273.593C323.496,269.008 324.755,263.69 324.758,257.688C324.758,257.688 324.758,157.445 324.741,107.31Z" style="fill:rgb(130,48,133);fill-rule:nonzero;"/>
                    <path d="M209.175,208.831C199.965,225.164 182.464,236.202 162.379,236.202C142.417,236.202 125.015,225.302 115.758,209.142C111.262,201.289 108.676,192.197 108.676,182.499C108.676,152.84 132.72,128.797 162.379,128.797C182.213,128.797 199.522,139.561 208.825,155.556L255.764,128.526C237.107,96.321 202.275,74.653 162.379,74.653C102.815,74.653 54.531,122.938 54.531,182.499C54.531,202.039 59.729,220.363 68.815,236.169C87.425,268.545 122.357,290.346 162.379,290.346C202.474,290.346 237.461,268.458 256.044,235.986L209.175,208.831Z" style="fill:white;fill-rule:nonzero;"/>
                </g>
                <g>
                    <rect x="359.348" y="178.799" width="8.868" height="42.954" style="fill:white;fill-rule:nonzero;"/>
                    <rect x="379.025" y="178.799" width="8.868" height="42.954" style="fill:white;fill-rule:nonzero;"/>
                    <rect x="352.143" y="186.005" width="42.955" height="8.868" style="fill:white;fill-rule:nonzero;"/>
                    <rect x="352.143" y="205.681" width="42.955" height="8.868" style="fill:white;fill-rule:nonzero;"/>
                </g>
            </g>
        </g>
    </g>
</svg>
